<svg width="81" height="24" viewBox="0 0 81 24" fill="none" xmlns="http://www.w3.org/2000/svg">
<path d="M0 9.71001L0.345416 8.11084C2.0597 7.82941 4.02558 7.16414 6.24306 6.11513V8.36673L6.20468 9.32625C6.20468 9.45412 6.20895 9.56926 6.21748 9.67166C6.22601 9.9531 6.23027 10.3412 6.23027 10.8358C6.23027 11.0576 6.23454 11.2367 6.24306 11.3731L6.33261 13.6247C6.34967 14.1109 6.41364 15.2026 6.52451 16.8998C4.76758 17.2068 3.24093 17.4371 1.94456 17.5906C2.06397 16.516 2.12367 14.9168 2.12367 12.7931L2.0725 9.58207C1.71429 9.72704 1.33049 9.79953 0.921105 9.79953C0.614072 9.79953 0.307036 9.76969 0 9.71001ZM3.78677 0.281453C4.42643 0.281453 4.9808 0.503195 5.44989 0.946695C5.91044 1.39019 6.14072 1.95309 6.14072 2.63539C6.14072 3.27505 5.91044 3.82516 5.44989 4.28571C4.9808 4.74626 4.42643 4.97654 3.78677 4.97654C3.14712 4.97654 2.59701 4.74626 2.13646 4.28571C1.6759 3.83368 1.44563 3.28358 1.44563 2.63539C1.44563 1.98721 1.6759 1.43284 2.13646 0.972277C2.58848 0.511725 3.13859 0.281453 3.78677 0.281453ZM26.0076 1.48401L25.1761 2.85288C22.4298 3.17697 20.0716 3.76119 18.1014 4.60554C16.0972 5.45842 14.7667 6.37952 14.11 7.36886C13.4448 8.3497 13.1122 9.56504 13.1122 11.0149C13.1122 13.7953 14.1441 16.0426 16.2081 17.7569C18.272 19.4712 20.7582 20.3283 23.6665 20.3283C26.5322 20.3283 28.724 19.3177 30.2422 17.2963C31.7688 15.2665 32.5322 13.3944 32.5322 11.6801C32.5322 11.2964 32.4384 10.6909 32.2507 9.8635C30.0588 8.87422 28.7155 6.69083 28.2208 3.31343C30.9415 1.25799 32.9799 0.153518 34.336 0C35.3936 0.861406 36.2123 2.02132 36.7923 3.47974C37.3808 4.94669 37.675 6.32409 37.675 7.61194C37.675 10.4179 36.6047 13.1343 34.464 15.7611C32.3403 18.371 29.8157 20.3966 26.8904 21.838C23.9992 23.2793 21.3296 24 18.8819 24C16.0845 24 13.6154 23.1641 11.4746 21.4925C9.32533 19.8294 8.25075 17.484 8.25075 14.4563C8.25075 12.4861 8.62171 10.7804 9.36376 9.33899C10.0887 7.90619 11.2571 6.60127 12.8691 5.4243C13.6793 4.83582 14.5663 4.30703 15.53 3.83794C16.4938 3.36886 17.5343 2.95522 18.6516 2.59701C20.9031 1.88059 23.3552 1.5096 26.0076 1.48401ZM39.1326 9.88912L39.2221 6.20468L43.0984 6.56289L43.3159 9.5181C43.5206 8.93812 43.704 8.37525 43.866 7.82941C43.994 7.37738 44.1347 7.02768 44.2882 6.78037C44.4247 6.54157 44.6678 6.33262 45.0174 6.15351C45.3501 5.97441 45.7509 5.88485 46.22 5.88485C46.7487 5.88485 47.333 6.00852 47.9727 6.25586L47.5505 7.88057C47.3372 8.75908 47.0686 9.73134 46.7445 10.7974C45.721 10.1237 45.0302 9.73556 44.672 9.63323C43.9897 10.5288 43.5846 11.2068 43.4567 11.6673C43.5078 12.4349 43.5633 13.0277 43.623 13.4456C44.3906 13.7185 45.0686 13.855 45.6571 13.855C45.2989 14.8614 44.8596 15.9616 44.3394 17.1557C42.5654 17.1557 41.478 17.049 41.0772 16.8358C40.6593 16.6311 40.2243 16.2814 39.7722 15.7868C39.3117 15.2836 39.0814 14.3283 39.0814 12.9211C39.0814 12 39.0984 10.9893 39.1326 9.88912ZM51.9249 8.62262L52.0528 13.9957C52.0954 13.9531 52.1339 13.9147 52.1679 13.8806C52.2106 13.838 52.2447 13.8038 52.2703 13.7782C52.33 13.6759 52.411 13.5437 52.5133 13.3816C52.6243 13.211 52.7224 13.0533 52.8076 12.9083L54.7778 9.44139C53.9675 9.06607 53.0166 8.79315 51.9249 8.62262ZM59.2298 16.8998L54.7393 17.7185C54.7479 17.4456 54.7522 17.1257 54.7522 16.759C54.7522 15.3944 54.6413 14.0384 54.4196 12.6908C54.1295 13.2367 53.5411 14.0043 52.6541 14.9936C51.7074 16.0512 51.008 16.8741 50.556 17.4626C49.6861 17.1983 48.9654 16.9381 48.394 16.6823C48.1722 15.3689 48.0614 13.919 48.0614 12.3326C48.0614 11.3603 48.2021 10.5373 48.4835 9.8635C48.7735 9.1812 49.2639 8.46906 49.9547 7.72708C50.6455 6.9851 51.3918 6.34967 52.1935 5.82089C52.7479 5.84647 53.5795 6.00852 54.6882 6.30703C54.7565 4.48187 54.7906 2.76759 54.7906 1.16418C57.2639 0.703621 58.7607 0.413648 59.281 0.29424C58.9739 3.73134 58.8204 7.45838 58.8204 11.4755C58.8204 12.4648 58.8545 13.4286 58.9228 14.3667C58.9995 15.3049 59.1019 16.1493 59.2298 16.8998ZM64.8707 8.64817L64.5381 11.7697C65.2801 11.7697 66.0775 11.7441 66.9304 11.6929C66.9475 11.1301 66.956 10.8614 66.956 10.887C66.956 10.162 66.7641 9.6162 66.3803 9.24947C65.988 8.87422 65.4848 8.67379 64.8707 8.64817ZM61.0072 8.52022L63.8856 6.07675L67.327 6.33262C68.4358 6.42643 69.2204 6.70361 69.6809 7.16414C70.1586 7.64178 70.3974 8.16201 70.3974 8.72495C70.3974 8.97225 70.3632 9.29212 70.295 9.6844C70.2012 10.145 70.1031 10.8315 70.0008 11.7441C68.8323 12.3496 67.9454 12.7036 67.3398 12.806C66.7257 12.9083 66.1372 12.9594 65.5743 12.9594C65.3611 12.9594 65.0967 12.9381 64.7812 12.8955C65.617 13.936 66.4315 14.4563 67.2246 14.4563C68.1628 14.4563 69.0071 14.1023 69.7577 13.3944H69.86C69.0071 16.0554 67.4294 17.3859 65.1266 17.3859C63.9326 17.3859 63.0669 17.2196 62.5295 16.887C61.9923 16.5544 61.5829 16.0725 61.3014 15.4413C61.0114 14.8272 60.8665 13.6631 60.8665 11.9488L60.9304 9.76118L61.0072 8.52022ZM71.9957 9.88912L72.0852 6.20468L75.9612 6.56289L76.1788 9.5181C76.3833 8.93812 76.5667 8.37525 76.729 7.82941C76.8571 7.37738 76.9976 7.02768 77.1512 6.78037C77.288 6.54157 77.5311 6.33262 77.8804 6.15351C78.213 5.97441 78.614 5.88485 79.0827 5.88485C79.6118 5.88485 80.1962 6.00852 80.836 6.25586L80.4138 7.88057C80.2006 8.75908 79.9313 9.73134 79.6075 10.7974C78.5842 10.1237 77.8935 9.73556 77.5354 9.63323C76.8528 10.5288 76.4474 11.2068 76.32 11.6673C76.371 12.4349 76.4263 13.0277 76.486 13.4456C77.2538 13.7185 77.9314 13.855 78.5201 13.855C78.1621 14.8614 77.7225 15.9616 77.2021 17.1557C75.4285 17.1557 74.3412 17.049 73.9402 16.8358C73.5224 16.6311 73.0872 16.2814 72.6353 15.7868C72.1748 15.2836 71.9445 14.3283 71.9445 12.9211C71.9445 12 71.9615 10.9893 71.9957 9.88912Z" fill="#202125"/>
</svg>
